<svg id="noun_like_1555605" xmlns="http://www.w3.org/2000/svg" width="46.217" height="41.228" viewBox="0 0 46.217 41.228">
  <g id="Group_13" data-name="Group 13" transform="translate(0 0)">
    <path id="Path_12" data-name="Path 12" d="M9.837,26.7H2.119A1.274,1.274,0,0,0,.833,27.991v20.58a1.274,1.274,0,0,0,1.286,1.286H9.837a1.273,1.273,0,0,0,1.286-1.286V27.991A1.272,1.272,0,0,0,9.837,26.7Z" transform="translate(-0.833 -10.017)" fill="#157cfc"/>
    <path id="Path_13" data-name="Path 13" d="M51.336,23.323a4.07,4.07,0,0,0-4.188-4.217H34.687A13.933,13.933,0,0,0,35.754,8.165a5.552,5.552,0,0,0-4.894-3.96l-.036,0a2.7,2.7,0,0,0-2.851,2.467c-.32,3.25-1.745,9-3.786,11.041a18.093,18.093,0,0,1-5.628,3.631c-.353.173-.738.361-1.146.564.007.088.012.176.012.267v20.37l.87.3c4.025,1.387,7.5,2.585,12.819,2.585H41.188a4.07,4.07,0,0,0,4.188-4.217A4.545,4.545,0,0,0,45,39.392a3.979,3.979,0,0,0,2.311-1.279,4.322,4.322,0,0,0,1.045-2.866,4.542,4.542,0,0,0-.375-1.813,4.071,4.071,0,0,0,3.356-4.148A4.36,4.36,0,0,0,50.2,26.3,4.369,4.369,0,0,0,51.336,23.323Z" transform="translate(-5.12 -4.197)" fill="#157cfc"/>
  </g>
</svg>
